<svg id="Layer_1" data-name="Layer 1" xmlns="http://www.w3.org/2000/svg" xmlns:xlink="http://www.w3.org/1999/xlink" viewBox="0 0 131.06 359.86"><defs><style>.cls-1{fill:none;}.cls-2{opacity:0.54;}.cls-3{fill:#aaa;}.cls-4{clip-path:url(#clip-path);}.cls-5{clip-path:url(#clip-path-2);}.cls-6{clip-path:url(#clip-path-3);}.cls-7{fill:url(#linear-gradient);}.cls-8{clip-path:url(#clip-path-4);}.cls-9{fill:url(#linear-gradient-2);}</style><clipPath id="clip-path" transform="translate(-181.48 -66.93)"><rect class="cls-1" x="171.64" y="210.79" width="146" height="216"/></clipPath><clipPath id="clip-path-2" transform="translate(-181.48 -66.93)"><rect class="cls-1" x="168.97" y="174.79" width="157.33" height="252"/></clipPath><clipPath id="clip-path-3" transform="translate(-181.48 -66.93)"><rect class="cls-1" x="164.31" y="139.24" width="171.33" height="287.55"/></clipPath><linearGradient id="linear-gradient" x1="247.14" y1="426.65" x2="247.14" y2="133.18" gradientUnits="userSpaceOnUse"><stop offset="0" stop-color="#fff"/><stop offset="0" stop-color="#fdfdeb"/><stop offset="0" stop-color="#fcfcd5"/><stop offset="0" stop-color="#fbfbc4"/><stop offset="0" stop-color="#fafab9"/><stop offset="0" stop-color="#f9f9b2"/><stop offset="0" stop-color="#f9f9b0"/><stop offset="0.18" stop-color="#f5f7b0"/><stop offset="0.33" stop-color="#ebf2b0"/><stop offset="0.49" stop-color="#d8eaaf"/><stop offset="0.63" stop-color="#bedeaf"/><stop offset="0.78" stop-color="#9dcfae"/><stop offset="0.92" stop-color="#75bdae"/><stop offset="1" stop-color="#59b0ad"/><stop offset="1" stop-color="#58aeab"/><stop offset="1" stop-color="#55a7a4"/><stop offset="1" stop-color="#4f9c99"/><stop offset="1" stop-color="#468b88"/><stop offset="1" stop-color="#3b7573"/><stop offset="1" stop-color="#2d5958"/><stop offset="1" stop-color="#1d3938"/><stop offset="1" stop-color="#0a1514"/><stop offset="1"/></linearGradient><clipPath id="clip-path-4" transform="translate(-181.48 -66.93)"><rect class="cls-1" x="171.64" y="102.79" width="160.67" height="323.86"/></clipPath><linearGradient id="linear-gradient-2" x1="246.63" y1="66.93" x2="246.63" y2="126.59" gradientUnits="userSpaceOnUse"><stop offset="0" stop-color="#fff"/><stop offset="0" stop-color="#dde9f2"/><stop offset="0" stop-color="#b9d1e3"/><stop offset="0" stop-color="#99bcd6"/><stop offset="0" stop-color="#7dabcc"/><stop offset="0" stop-color="#679cc3"/><stop offset="0" stop-color="#5691bc"/><stop offset="0" stop-color="#4b8ab7"/><stop offset="0" stop-color="#4485b5"/><stop offset="0" stop-color="#4284b4"/><stop offset="0.03" stop-color="#468bb3"/><stop offset="0.14" stop-color="#4e9cb0"/><stop offset="0.28" stop-color="#54a7ae"/><stop offset="0.47" stop-color="#58aead"/><stop offset="1" stop-color="#59b0ad"/><stop offset="1" stop-color="#4f9b99"/><stop offset="1" stop-color="#3c7775"/><stop offset="1" stop-color="#2c5755"/><stop offset="1" stop-color="#1e3b3a"/><stop offset="1" stop-color="#132525"/><stop offset="1" stop-color="#0a1414"/><stop offset="1" stop-color="#040909"/><stop offset="1" stop-color="#010202"/><stop offset="1"/></linearGradient></defs><title>60 man</title><g class="cls-2"><g id="g2451"><path id="path2459" class="cls-3" d="M217.16,133.32c-19.78,0-35.69,17.23-35.69,38.72v91.59c0,17.81,24.4,17.81,24.4,0V179.88h5.78V409.2c0,23.81,32.49,23.11,32.49,0V276.08h5.6V409.2c0,23.11,32.67,23.81,32.67,0V179.88h5.64v83.75c0,17.94,24.27,17.94,24.23,0v-91c0-19.82-14.41-39.22-36.12-39.22Z" transform="translate(-181.48 -66.93)"/><g id="g2453"><path id="path2455" class="cls-3" d="M246.37,126.74c15.42,0,27.93-13.36,27.93-29.83s-12.51-29.83-27.93-29.83-27.93,13.36-27.93,29.83S230.94,126.74,246.37,126.74Z" transform="translate(-181.48 -66.93)"/><path id="path2457" class="cls-3" d="M246.37,96.91" transform="translate(-181.48 -66.93)"/></g></g></g><g class="cls-4"><g class="cls-5"><g class="cls-6"><path id="path2459-2" data-name="path2459" class="cls-7" d="M211.91,390.79v18.26c0,23.81,32.49,23.11,32.49,0V275.94H250V409.05c0,23.11,32.67,23.81,32.67,0V179.74h5.64v83.75c0,17.94,24.27,17.94,24.23,0v-91c0-19.82-14.41-39.22-36.12-39.22l-59,0c-19.78,0-35.69,17.23-35.69,38.72v91.59c0,17.81,24.4,17.81,24.4,0V179.74h5.78V390.79" transform="translate(-181.48 -66.93)"/><g class="cls-8"><path id="path2455-2" data-name="path2455" class="cls-9" d="M246.63,126.59c15.42,0,27.93-13.36,27.93-29.83s-12.51-29.83-27.93-29.83S218.7,80.29,218.7,96.76,231.2,126.59,246.63,126.59Z" transform="translate(-181.48 -66.93)"/></g></g></g></g></svg>